<svg xmlns="http://www.w3.org/2000/svg" width="124" height="112" viewBox="0 0 124 112" fill="none">
  <path d="M112 68.5V56H12V68.5C12 75.6125 15.6437 88.8 29.1563 92.5063C31.4688 93.1438 34.075 93.5 37 93.5H87C89.6474 93.5237 92.2859 93.1895 94.8438 92.5063C108.356 88.8 112 75.6125 112 68.5Z" fill="white"/>
  <path d="M5.75 56H12M12 56H112M12 56V68.5C12 75.6125 15.6437 88.8 29.1562 92.5063M112 56C113.658 56 115.247 55.3415 116.419 54.1694C117.592 52.9973 118.25 51.4076 118.25 49.75V24.75C118.25 18.5 114.5 6 99.5 6C84.5 6 80.75 18.5 80.75 24.75M112 56V68.5C112 75.6125 108.356 88.8 94.8437 92.5063M80.75 24.75H68.25M80.75 24.75H93.25M94.8437 92.5063C92.2859 93.1895 89.6474 93.5237 87 93.5H37C34.075 93.5 31.4687 93.1438 29.1562 92.5063M94.8437 92.5063L99.5 106M29.1562 92.5063L24.5 106" stroke="white" stroke-width="11" stroke-linecap="round" stroke-linejoin="round"/>
</svg>