<svg xmlns="http://www.w3.org/2000/svg" width="150" height="150" viewBox="0 0 150 150" fill="none">
  <path d="M126.562 67.5879C123.607 66.2903 120.415 65.6219 117.188 65.625H32.8125C29.5855 65.6218 26.393 66.2892 23.4375 67.585C19.2604 69.4117 15.7059 72.4157 13.2085 76.23C10.7111 80.0442 9.37899 84.5034 9.375 89.0625V121.875C9.375 123.118 9.86886 124.31 10.7479 125.19C11.627 126.069 12.8193 126.562 14.0625 126.562C15.3057 126.562 16.498 126.069 17.3771 125.19C18.2561 124.31 18.75 123.118 18.75 121.875V119.531C18.7576 118.912 19.007 118.32 19.4449 117.882C19.8828 117.444 20.4745 117.195 21.0938 117.188H128.906C129.525 117.195 130.117 117.444 130.555 117.882C130.993 118.32 131.242 118.912 131.25 119.531V121.875C131.25 123.118 131.744 124.31 132.623 125.19C133.502 126.069 134.694 126.562 135.938 126.562C137.181 126.562 138.373 126.069 139.252 125.19C140.131 124.31 140.625 123.118 140.625 121.875V89.0625C140.62 84.5039 139.288 80.0453 136.791 76.2317C134.293 72.418 130.739 69.4144 126.562 67.5879ZM110.156 23.4375H39.8438C35.4925 23.4375 31.3195 25.166 28.2428 28.2428C25.166 31.3195 23.4375 35.4925 23.4375 39.8438V60.9375C23.4376 61.1191 23.48 61.2982 23.5612 61.4606C23.6424 61.6231 23.7602 61.7644 23.9054 61.8735C24.0505 61.9826 24.2191 62.0564 24.3977 62.0892C24.5763 62.1221 24.7601 62.1129 24.9346 62.0625C27.4935 61.3141 30.1463 60.9352 32.8125 60.9375H34.0518C34.341 60.9393 34.6207 60.8341 34.8371 60.6421C35.0534 60.4501 35.1911 60.1849 35.2236 59.8975C35.4793 57.607 36.5697 55.491 38.2866 53.9535C40.0035 52.416 42.2266 51.5648 44.5312 51.5625H60.9375C63.2437 51.5627 65.4689 52.4129 67.1877 53.9506C68.9064 55.4883 69.9981 57.6055 70.2539 59.8975C70.2864 60.1849 70.4241 60.4501 70.6405 60.6421C70.8568 60.8341 71.1365 60.9393 71.4258 60.9375H78.5918C78.8811 60.9393 79.1608 60.8341 79.3771 60.6421C79.5935 60.4501 79.7311 60.1849 79.7637 59.8975C80.0192 57.6085 81.1083 55.4937 82.8234 53.9564C84.5384 52.4192 86.7593 51.567 89.0625 51.5625H105.469C107.775 51.5627 110 52.4129 111.719 53.9506C113.438 55.4883 114.529 57.6055 114.785 59.8975C114.818 60.1849 114.955 60.4501 115.172 60.6421C115.388 60.8341 115.668 60.9393 115.957 60.9375H117.188C119.854 60.9362 122.507 61.316 125.065 62.0654C125.24 62.1159 125.424 62.125 125.603 62.092C125.782 62.0591 125.951 61.985 126.096 61.8755C126.241 61.7661 126.359 61.6244 126.44 61.4616C126.521 61.2988 126.563 61.1193 126.562 60.9375V39.8438C126.562 35.4925 124.834 31.3195 121.757 28.2428C118.68 25.166 114.507 23.4375 110.156 23.4375Z" fill="white"/>
</svg>