<svg xmlns="http://www.w3.org/2000/svg" width="142" height="113" viewBox="0 0 142 113" fill="none">
  <path d="M116.357 70.2051C110.738 73.6211 104.283 75.4177 97.7069 75.3965C92.1974 75.3529 86.7503 74.2261 81.6757 72.0801C77.7646 77.6015 75.6715 84.2045 75.6874 90.9707V108.25C75.6888 108.893 75.5581 109.529 75.3033 110.119C75.0486 110.709 74.6753 111.24 74.2066 111.679C73.7379 112.119 73.1838 112.457 72.5787 112.674C71.9736 112.89 71.3306 112.98 70.6894 112.937C69.4845 112.833 68.3638 112.276 67.5521 111.38C66.7403 110.483 66.2975 109.313 66.3124 108.104V100.814L43.6835 78.1855C40.3196 79.4405 36.762 80.0969 33.1718 80.125C28.2291 80.1378 23.379 78.7854 19.1562 76.2168C6.38858 68.459 -0.484462 50.6055 0.845616 28.4394C0.912585 27.2927 1.39831 26.2104 2.21058 25.3982C3.02285 24.5859 4.1051 24.1002 5.25187 24.0332C27.4179 22.7266 45.2714 29.5762 53.0058 42.3437C56.0445 47.3481 57.3712 53.2059 56.7851 59.0312C56.7486 59.4826 56.5822 59.9137 56.306 60.2725C56.0298 60.6313 55.6555 60.9024 55.2285 61.053C54.8014 61.2036 54.3399 61.2273 53.8997 61.1212C53.4595 61.015 53.0595 60.7837 52.748 60.4551L41.498 48.6777C40.6117 47.8358 39.4317 47.3733 38.2093 47.389C36.987 47.4046 35.8192 47.8971 34.9548 48.7615C34.0904 49.6259 33.5979 50.7937 33.5822 52.0161C33.5666 53.2384 34.029 54.4185 34.871 55.3047L66.4413 87.6777C66.4765 87.2207 66.5175 86.7637 66.5644 86.3125C67.5894 77.6216 71.4244 69.5031 77.4862 63.1914L107.129 31.8672C108.008 30.9884 108.503 29.7962 108.503 28.5528C108.504 27.3095 108.011 26.1169 107.132 25.2373C106.253 24.3577 105.061 23.8633 103.817 23.8627C102.574 23.8622 101.381 24.3556 100.502 25.2344L71.7909 55.5976C71.5035 55.9021 71.1399 56.1239 70.7377 56.2402C70.3355 56.3565 69.9096 56.3629 69.5041 56.2589C69.0986 56.1548 68.7284 55.944 68.4319 55.6485C68.1354 55.3529 67.9236 54.9833 67.8183 54.5781C65.0409 44.3359 66.2655 34.1406 71.5683 25.3867C82.0331 8.11328 106.385 -1.13282 136.713 0.648432C137.86 0.715401 138.942 1.20113 139.754 2.0134C140.566 2.82566 141.052 3.90792 141.119 5.05468C142.877 35.3887 133.631 59.7402 116.357 70.2051Z" fill="white"/>
</svg>