<svg xmlns="http://www.w3.org/2000/svg" width="136" height="136" viewBox="0 0 136 136" fill="none">
  <path d="M36.75 52.375C36.75 56.519 35.1038 60.4933 32.1735 63.4235C29.2433 66.3538 25.269 68 21.125 68C16.981 68 13.0067 66.3538 10.0765 63.4235C7.1462 60.4933 5.5 56.519 5.5 52.375C5.5 48.231 7.1462 44.2567 10.0765 41.3265C13.0067 38.3962 16.981 36.75 21.125 36.75C25.269 36.75 29.2433 38.3962 32.1735 41.3265C35.1038 44.2567 36.75 48.231 36.75 52.375ZM36.75 52.375V5.5C38.8313 8.625 40.5 21.75 55.5 24.25" stroke="white" stroke-width="9.375" stroke-linecap="round" stroke-linejoin="round"/>
  <path d="M58.625 130.5C67.2544 130.5 74.25 123.504 74.25 114.875C74.25 106.246 67.2544 99.25 58.625 99.25C49.9956 99.25 43 106.246 43 114.875C43 123.504 49.9956 130.5 58.625 130.5Z" stroke="white" stroke-width="9.375" stroke-linecap="round" stroke-linejoin="round"/>
  <path d="M118 118C124.904 118 130.5 112.404 130.5 105.5C130.5 98.5964 124.904 93 118 93C111.096 93 105.5 98.5964 105.5 105.5C105.5 112.404 111.096 118 118 118Z" stroke="white" stroke-width="9.375" stroke-linecap="round" stroke-linejoin="round"/>
  <path d="M74.25 114.875V61.75C74.25 56.0625 74.25 53.2188 75.7937 51.4501C77.3312 49.6876 80.4625 49.2625 86.7187 48.4063C105.556 45.8375 119.256 37.9875 126.563 33.1813C128.313 32.0313 129.188 31.4563 129.844 31.8063C130.5 32.1563 130.5 33.2 130.5 35.2688V105.038" stroke="white" stroke-width="9.375" stroke-linecap="round" stroke-linejoin="round"/>
  <path d="M74.25 74.25C104.25 74.25 124.25 59.6687 130.5 55.5" stroke="white" stroke-width="9.375" stroke-linecap="round" stroke-linejoin="round"/>
</svg>