<svg width="16" height="16" viewBox="0 0 16 16" fill="none" xmlns="http://www.w3.org/2000/svg">
<path d="M8.46042 6.5877L8.46042 0.93637C8.46042 0.422613 8.03782 5.99946e-06 7.52406 6.02054e-06C7.0103 6.71069e-06 6.5877 0.422612 6.5877 0.936369L6.58769 6.5877L0.936364 6.5877C0.422607 6.5877 -5.51543e-07 7.01031 -6.51642e-07 7.52407C-7.25398e-07 7.78095 0.10358 8.01711 0.273451 8.18698C0.443322 8.35685 0.679485 8.46043 0.936364 8.46043L6.58769 8.46043L6.58769 14.1118C6.58769 14.3686 6.69127 14.6048 6.86114 14.7747C7.03102 14.9445 7.26718 15.0481 7.52406 15.0481C8.03781 15.0481 8.46042 14.6255 8.46042 14.1118L8.46042 8.46043L14.1118 8.46043C14.6255 8.46043 15.0481 8.03782 15.0481 7.52406C15.0481 7.01031 14.6255 6.5877 14.1118 6.5877L8.46042 6.5877Z" fill="white"/>
</svg>
